# xmcd CD database file
#
# Track frame offsets:
#	150
#	4915
#	21092
#	23812
#	39420
#	52452
#	68367
#	83075
#	87567
#	96775
#	103615
#	106965
#	119952
#	132397
#	147067
#
# Disc length: 2049 seconds
#
# Revision: 0
# Processed by: cddbd v1.4PL0 Copyright (c) Steve Scherf et al.
# Submitted via: CD2WAV32(EN) R3.19
#
DISCID=cb07ff0f
DTITLE=SUNTORY - compilation of Suntory oolong tea CM SONG
DYEAR=1900
DGENRE=
TTITLE0=mam ha sotode 88'
TTITLE1=oo ea shan 90'
TTITLE2=MEMORT 91'
TTITLE3=itudemo yumewo 92'
TTITLE4=kekkon siyouyo 93'
TTITLE5=haruitiban 94'
TTITLE6=syochu omimai mousiagemasu 94'
TTITLE7=hohoemigaesi 94'
TTITLE8=taikosen 95'
TTITLE9=masu 96'
TTITLE10=tetuwan ATOM 97'
TTITLE11=midoriko no hotoride 98'
TTITLE12=soshu yakyoku 99'
TTITLE13=charin 00'
TTITLE14=Like a Virgin 01'
EXTD=
EXTT0=
EXTT1=
EXTT2=
EXTT3=
EXTT4=
EXTT5=
EXTT6=
EXTT7=
EXTT8=
EXTT9=
EXTT10=
EXTT11=
EXTT12=
EXTT13=
EXTT14=
PLAYORDER=
